static_00
version=1
nRows=22
nColumns=46
inDegrees=yes
endheader
time	ground_force3_vx	ground_force3_vy	ground_force3_vz	ground_force3_px	ground_force3_py	ground_force3_pz	ground_torque3_x	ground_torque3_y	ground_torque3_z	ground_force5_vx	ground_force5_vy	ground_force5_vz	ground_force5_px	ground_force5_py	ground_force5_pz	ground_torque5_x	ground_torque5_y	ground_torque5_z	ground_force4_vx	ground_force4_vy	ground_force4_vz	ground_force4_px	ground_force4_py	ground_force4_pz	ground_torque4_x	ground_torque4_y	ground_torque4_z	ground_force1_vx	ground_force1_vy	ground_force1_vz	ground_force1_px	ground_force1_py	ground_force1_pz	ground_torque1_x	ground_torque1_y	ground_torque1_z	ground_force2_vx	ground_force2_vy	ground_force2_vz	ground_force2_px	ground_force2_py	ground_force2_pz	ground_torque2_x	ground_torque2_y	ground_torque2_z
0.000000	0.796262	484.200409	-59.711182	0.191429	0.000000	-0.392503	-0.000002	1.088406	0.000009	-0.000000	-0.000000	0.000000	0.200000	0.000000	-1.500000	0.000000	0.000000	0.000000	-0.798913	440.521301	56.886482	0.203367	0.000000	-0.805610	0.000016	-0.261979	0.000002	-1.523770	7.170088	-1.434802	0.203524	0.000000	0.980266	-0.000000	-0.001829	0.000000	-3.012749	7.128833	-0.013922	0.127927	0.000000	0.256405	-0.000000	-0.303417	0.000000	
0.000500	0.474516	484.830933	-59.953384	0.191337	0.000000	-0.392530	0.000005	1.081505	0.000002	-0.000000	-0.000000	0.000000	0.200000	0.000000	-1.500000	0.000000	0.000000	0.000000	-0.474511	440.844055	57.045998	0.203234	0.000000	-0.805517	0.000012	-0.249623	0.000007	-1.685668	8.272100	-1.113733	0.199820	0.000000	0.977642	-0.000000	0.026022	0.000000	-3.172184	7.127214	-0.417889	0.133450	0.000000	0.244838	-0.000000	-0.119336	0.000000	
0.001000	0.152771	485.461487	-60.195587	0.191245	0.000000	-0.392558	0.000005	1.074593	0.000002	-0.000000	-0.000000	0.000000	0.200000	0.000000	-1.500000	0.000000	0.000000	0.000000	-0.150109	441.166809	57.205513	0.203102	0.000000	-0.805424	0.000027	-0.237174	0.000006	-1.847566	9.374113	-0.792664	0.196986	0.000000	0.975635	-0.000000	0.056652	0.000000	-3.331619	7.125595	-0.821856	0.138977	0.000000	0.233266	-0.000000	0.072917	0.000000	
0.001500	0.394080	484.672333	-59.872818	0.191222	0.000000	-0.392876	0.000005	1.024729	0.000004	-0.000000	-0.000000	0.000000	0.200000	0.000000	-1.500000	0.000000	0.000000	0.000000	-0.229086	439.082458	57.286289	0.203393	0.000000	-0.805027	0.000032	-0.171119	0.000007	-1.847566	8.585787	-0.469898	0.190395	0.000000	0.986133	-0.000000	-0.003601	0.000000	-1.665810	3.562798	-0.410928	0.138977	0.000000	0.233266	-0.000000	0.036458	0.000000	
0.002000	0.635389	483.883179	-59.550053	0.191199	0.000000	-0.393196	0.000024	0.974721	0.000006	-0.000000	-0.000000	0.000000	0.200000	0.000000	-1.500000	0.000000	0.000000	0.000000	-0.308063	436.998077	57.367065	0.203686	0.000000	-0.804626	0.000006	-0.105334	0.000008	-1.847566	7.797461	-0.147131	0.182470	0.000000	0.998754	-0.000000	-0.063716	0.000000	-0.000000	-0.000000	0.000000	0.200000	0.000000	0.320000	0.000000	0.000000	0.000000	
0.002500	0.474516	483.250549	-59.469658	0.191106	0.000000	-0.393573	0.000005	0.987821	0.000002	-0.000000	-0.000000	0.000000	0.200000	0.000000	-1.500000	0.000000	0.000000	0.000000	-0.389357	437.317444	57.528111	0.203595	0.000000	-0.804826	0.000017	-0.124535	0.000007	-1.847566	7.641584	-0.469473	0.184250	0.000000	0.986405	-0.000000	-0.026297	0.000000	-0.000000	-0.000000	0.000000	0.200000	0.000000	0.320000	0.000000	0.000000	0.000000	
0.003000	0.313643	482.617889	-59.389267	0.191012	0.000000	-0.393951	0.000006	1.001043	0.000004	-0.000000	-0.000000	0.000000	0.200000	0.000000	-1.500000	0.000000	0.000000	0.000000	-0.470650	437.636841	57.689156	0.203504	0.000000	-0.805026	0.000008	-0.143682	0.000007	-1.847566	7.485708	-0.791815	0.186105	0.000000	0.973541	-0.000000	0.013278	0.000000	-0.000000	-0.000000	0.000000	0.200000	0.000000	0.320000	0.000000	0.000000	0.000000	
0.003500	0.715826	483.251709	-59.147064	0.191275	0.000000	-0.393543	0.000012	0.994282	0.000002	-0.000000	-0.000000	0.000000	0.200000	0.000000	-1.500000	0.000000	0.000000	0.000000	-0.551171	438.278687	57.607868	0.203651	0.000000	-0.804887	0.000023	-0.172557	0.000005	-2.089340	7.798633	-0.630856	0.189920	0.000000	0.964626	-0.000000	0.104371	0.000000	-0.000000	-0.000000	0.000000	0.200000	0.000000	0.320000	0.000000	0.000000	0.000000	
0.004000	1.118008	483.885498	-58.904861	0.191538	0.000000	-0.393137	0.000014	0.987680	0.000005	-0.000000	-0.000000	0.000000	0.200000	0.000000	-1.500000	0.000000	0.000000	0.000000	-0.631693	438.920502	57.526581	0.203799	0.000000	-0.804748	0.000015	-0.201406	0.000010	-2.331113	8.111558	-0.469898	0.193440	0.000000	0.956400	-0.000000	0.196805	0.000000	-0.000000	-0.000000	0.000000	0.200000	0.000000	0.320000	0.000000	0.000000	0.000000	
0.004500	0.796262	484.042480	-59.147064	0.191468	0.000000	-0.392803	0.000008	0.982646	0.000002	-0.000000	-0.000000	0.000000	0.200000	0.000000	-1.500000	0.000000	0.000000	0.000000	-0.795052	438.437103	57.526581	0.203753	0.000000	-0.805588	0.000026	-0.278524	0.000006	-1.928301	8.428122	-0.550165	0.182121	0.000000	0.947402	-0.000000	0.066938	0.000000	-0.000000	-0.000000	0.000000	0.200000	0.000000	0.320000	0.000000	0.000000	0.000000	
0.005000	0.474516	484.199463	-59.389267	0.191397	0.000000	-0.392469	0.000006	0.977366	0.000006	-0.000000	-0.000000	0.000000	0.200000	0.000000	-1.500000	0.000000	0.000000	0.000000	-0.958411	437.953705	57.526581	0.203707	0.000000	-0.806431	0.000002	-0.355360	0.000002	-1.525488	8.744684	-0.630432	0.171621	0.000000	0.939056	0.000000	-0.072472	0.000000	-0.000000	-0.000000	0.000000	0.200000	0.000000	0.320000	0.000000	0.000000	0.000000	
0.005500	0.554953	483.251709	-59.308533	0.191253	0.000000	-0.393168	0.000005	0.987452	0.000004	-0.000000	-0.000000	0.000000	0.200000	0.000000	-1.500000	0.000000	0.000000	0.000000	-0.795052	438.757324	57.446823	0.203508	0.000000	-0.805959	0.000031	-0.234908	0.000006	-1.686098	8.743759	-0.630432	0.184175	0.000000	0.952875	-0.000000	0.006134	0.000000	-0.000000	-0.000000	0.000000	0.200000	0.000000	0.320000	0.000000	0.000000	0.000000	
0.006000	0.635389	482.303955	-59.227798	0.191108	0.000000	-0.393870	0.000005	0.997413	0.000002	-0.000000	-0.000000	0.000000	0.200000	0.000000	-1.500000	0.000000	0.000000	0.000000	-0.631693	439.560913	57.367065	0.203310	0.000000	-0.805489	0.000012	-0.114374	0.000006	-1.846707	8.742835	-0.630432	0.196732	0.000000	0.966697	-0.000000	0.080298	0.000000	-0.000000	-0.000000	0.000000	0.200000	0.000000	0.320000	0.000000	0.000000	0.000000	
0.006500	0.635389	483.882538	-59.308533	0.191128	0.000000	-0.393301	0.000018	0.988531	0.000003	-0.000000	-0.000000	0.000000	0.200000	0.000000	-1.500000	0.000000	0.000000	0.000000	-0.551944	438.761353	57.447845	0.203202	0.000000	-0.805374	-0.000010	-0.139714	0.000003	-1.685668	7.324516	-0.630008	0.195007	0.000000	0.997443	-0.000000	-0.049084	-0.000000	-0.000000	-0.000000	0.000000	0.200000	0.000000	0.320000	0.000000	0.000000	0.000000	
0.007000	0.635389	485.461121	-59.389267	0.191147	0.000000	-0.392735	0.000017	0.979642	0.000001	-0.000000	-0.000000	0.000000	0.200000	0.000000	-1.500000	0.000000	0.000000	0.000000	-0.472194	437.961792	57.528622	0.203093	0.000000	-0.805258	0.000002	-0.164996	0.000003	-1.524629	5.906198	-0.629583	0.192453	0.000000	1.042956	-0.000001	-0.191598	0.000000	-0.000000	-0.000000	0.000000	0.200000	0.000000	0.320000	0.000000	0.000000	0.000000	
0.007500	0.554953	484.514038	-59.147064	0.191203	0.000000	-0.393159	0.000008	1.005273	0.000009	-0.000000	-0.000000	0.000000	0.200000	0.000000	-1.500000	0.000000	0.000000	0.000000	-0.470650	437.960083	57.205513	0.203340	0.000000	-0.805442	0.000019	-0.151942	0.000006	-2.090199	7.009463	-0.469473	0.192179	0.000000	1.019525	-0.000000	-0.091853	0.000000	-1.666656	2.291543	-0.329728	0.171657	0.000000	0.208481	-0.000000	0.000302	0.000000	
0.008000	0.474516	483.566956	-58.904861	0.191259	0.000000	-0.393585	0.000005	1.030956	-0.000002	-0.000000	-0.000000	0.000000	0.200000	0.000000	-1.500000	0.000000	0.000000	0.000000	-0.469106	437.958405	56.882404	0.203587	0.000000	-0.805625	0.000010	-0.138728	0.000000	-2.655768	8.112728	-0.309363	0.191980	0.000000	1.002466	-0.000001	0.017580	0.000000	-3.333312	4.583086	-0.659455	0.171657	0.000000	0.208481	-0.000000	0.000604	0.000000	
0.008500	0.715826	483.253326	-59.308189	0.191567	0.000000	-0.393434	0.000020	1.029600	0.000004	-0.000000	-0.000000	0.000000	0.200000	0.000000	-1.500000	0.000000	0.000000	0.000000	-0.712986	437.481934	57.285271	0.203274	0.000000	-0.804959	0.000012	-0.184712	0.000000	-2.332831	7.325964	-0.791815	0.195664	0.000000	0.995733	-0.000000	-0.024782	0.000000	-2.930916	4.744356	-0.578763	0.144509	0.000000	0.108290	-0.000000	0.274694	0.000000	
0.009000	0.957135	482.939697	-59.711521	0.191876	0.000000	-0.393282	0.000008	1.028589	0.000006	-0.000000	-0.000000	0.000000	0.200000	0.000000	-1.500000	0.000000	0.000000	0.000000	-0.956867	437.005493	57.688133	0.202961	0.000000	-0.804291	0.000035	-0.230732	-0.000002	-2.009894	6.539201	-1.274267	0.200234	0.000000	0.987379	-0.000000	-0.063552	0.000000	-2.528520	4.905626	-0.498072	0.119146	0.000000	0.014687	-0.000000	0.456765	-0.000000	
0.009500	0.796262	483.096008	-59.469490	0.191604	0.000000	-0.393157	0.000013	1.039189	0.000005	-0.000000	-0.000000	0.000000	0.200000	0.000000	-1.500000	0.000000	0.000000	0.000000	-0.794280	438.442627	57.367065	0.203258	0.000000	-0.805019	0.000021	-0.159659	-0.000000	-1.605793	7.800391	-0.709850	0.202868	0.000000	0.956586	-0.000001	-0.081962	0.000000	-3.010633	4.739608	-0.578255	0.128010	0.000000	0.109557	-0.000000	0.307109	0.000000	
0.010000	0.635389	483.252350	-59.227459	0.191332	0.000000	-0.393031	0.000021	1.049891	0.000006	-0.000000	-0.000000	0.000000	0.200000	0.000000	-1.500000	0.000000	0.000000	0.000000	-0.631693	439.879791	57.045998	0.203554	0.000000	-0.805742	0.000018	-0.088526	0.000004	-1.201692	9.061581	-0.145433	0.204768	0.000000	0.934365	-0.000000	-0.138638	0.000000	-3.492747	4.573589	-0.658437	0.137518	0.000000	0.211314	-0.000000	0.043765	0.000000	
0.010500	0.554953	483.568420	-59.227459	0.191405	0.000000	-0.393099	0.000008	1.045566	0.000006	-0.000000	-0.000000	0.000000	0.200000	0.000000	-1.500000	0.000000	0.000000	0.000000	-0.712986	438.761017	56.722889	0.203429	0.000000	-0.805310	0.000015	-0.143319	0.000002	-1.443895	7.957453	-0.790542	0.196832	0.000000	0.959164	-0.000000	-0.074532	0.000000	-3.331196	4.261036	-0.176323	0.109048	0.000000	0.111956	-0.000000	0.465781	0.000000	
